<svg xmlns="http://www.w3.org/2000/svg" viewBox="0 0 768 768" role="img" aria-label="Sample chibi football illustration">
  <rect width="768" height="768" fill="#dff3ff"/><circle cx="610" cy="150" r="64" fill="#ffe9a8"/><path d="M0 520c155-84 316-77 476-21 102 36 198 41 292-11v280H0Z" fill="#bfe9a6"/><g opacity=".65" fill="#fff"><ellipse cx="130" cy="158" rx="96" ry="30"/><ellipse cx="358" cy="128" rx="122" ry="34"/><ellipse cx="610" cy="252" rx="104" ry="30"/></g><g stroke="#111" stroke-width="8" stroke-linecap="round" stroke-linejoin="round"><g transform="translate(80 284)"><circle cx="110" cy="110" r="72" fill="#ffd5dd"/><circle cx="83" cy="100" r="18" fill="#fff"/><circle cx="138" cy="100" r="18" fill="#fff"/><path d="M98 134c12 10 25 10 37 0" fill="none"/><path d="M58 188h104l26 146H32Z" fill="#ffe4ef"/></g><g transform="translate(272 238)"><circle cx="110" cy="110" r="74" fill="#d9efff"/><circle cx="84" cy="100" r="18" fill="#fff"/><circle cx="139" cy="100" r="18" fill="#fff"/><path d="M96 136c15 12 29 12 43 0" fill="none"/><path d="M55 190h110l27 158H28Z" fill="#bfe4ff"/><circle cx="198" cy="292" r="32" fill="#fff"/></g><g transform="translate(470 284)"><circle cx="110" cy="110" r="72" fill="#fff0b6"/><circle cx="83" cy="100" r="18" fill="#fff"/><circle cx="138" cy="100" r="18" fill="#fff"/><path d="M98 134c12 10 25 10 37 0" fill="none"/><path d="M58 188h104l26 146H32Z" fill="#fff3ba"/></g></g>
</svg>
